HIERARCHY
ROOT hip
{
  OFFSET 0 0 0
  CHANNELS 6 Xposition Yposition Zposition Zrotation Yrotation Xrotation
  JOINT abdomen
  {
    OFFSET 0 20.6881 -0.73152
    CHANNELS 3 Zrotation Xrotation Yrotation
    JOINT chest
    {
      OFFSET 0 11.7043 -0.48768
      CHANNELS 3 Zrotation Xrotation Yrotation
      JOINT neck
      {
        OFFSET 0 22.1894 -2.19456
        CHANNELS 3 Zrotation Xrotation Yrotation
        JOINT head
        {
          OFFSET -0.24384 7.07133 1.2192
          CHANNELS 3 Zrotation Xrotation Yrotation
          JOINT leftEye
          {
            OFFSET 4.14528 8.04674 8.04672
            CHANNELS 3 Zrotation Xrotation Yrotation
            End Site
            {
              OFFSET 1 0 0
            }
          }
          JOINT rightEye
          {
            OFFSET -3.6576 8.04674 8.04672
            CHANNELS 3 Zrotation Xrotation Yrotation
            End Site
            {
              OFFSET 1 0 0
            }
          }
        }
      }
      JOINT rCollar
      {
        OFFSET -2.68224 19.2634 -4.8768
        CHANNELS 3 Zrotation Xrotation Yrotation
        JOINT rShldr
        {
          OFFSET -8.77824 -1.95073 1.46304
          CHANNELS 3 Zrotation Xrotation Yrotation
          JOINT rForeArm
          {
            OFFSET -28.1742 -1.7115 0.48768
            CHANNELS 3 Zrotation Xrotation Yrotation
            JOINT rHand
            {
              OFFSET -22.5879 0.773209 7.07136
              CHANNELS 3 Zrotation Xrotation Yrotation
              JOINT rThumb1
              {
                OFFSET -1.2192 -0.487915 3.41376
                CHANNELS 3 Zrotation Xrotation Yrotation
                JOINT rThumb2
                {
                  OFFSET -3.37035 -0.52449 3.41376
                  CHANNELS 3 Zrotation Xrotation Yrotation
                  End Site
                  {
                    OFFSET -1.78271 -1.18214 1.43049
                  }
                }
              }
              JOINT rIndex1
              {
                OFFSET -7.75947 0.938293 5.60832
                CHANNELS 3 Zrotation Xrotation Yrotation
                JOINT rIndex2
                {
                  OFFSET -2.54057 -0.884171 1.56538
                  CHANNELS 3 Zrotation Xrotation Yrotation
                  End Site
                  {
                    OFFSET -1.62519 -0.234802 1.16502
                  }
                }
              }
              JOINT rMid1
              {
                OFFSET -8.24714 1.18213 3.41376
                CHANNELS 3 Zrotation Xrotation Yrotation
                JOINT rMid2
                {
                  OFFSET -3.10165 -0.590103 1.0647
                  CHANNELS 3 Zrotation Xrotation Yrotation
                  End Site
                  {
                    OFFSET -2.48547 -0.328903 0.83742
                  }
                }
              }
              JOINT rRing1
              {
                OFFSET -8.82822 0.546677 1.51678
                CHANNELS 3 Zrotation Xrotation Yrotation
                JOINT rRing2
                {
                  OFFSET -2.60934 -0.819778 -0.0198488
                  CHANNELS 3 Zrotation Xrotation Yrotation
                  End Site
                  {
                    OFFSET -2.33842 -0.294052 0.168128
                  }
                }
              }
              JOINT rPinky1
              {
                OFFSET -8.27202 -0.0477905 -0.4584
                CHANNELS 3 Zrotation Xrotation Yrotation
                JOINT rPinky2
                {
                  OFFSET -1.82734 -0.647385 -0.700984
                  CHANNELS 3 Zrotation Xrotation Yrotation
                  End Site
                  {
                    OFFSET -1.69225 -0.51767 -0.607171
                  }
                }
              }
            }
          }
        }
      }
      JOINT lCollar
      {
        OFFSET 2.68224 19.2634 -4.8768
        CHANNELS 3 Zrotation Xrotation Yrotation
        JOINT lShldr
        {
          OFFSET 8.77824 -1.95073 1.46304
          CHANNELS 3 Zrotation Xrotation Yrotation
          JOINT lForeArm
          {
            OFFSET 28.1742 -1.7115 0.48768
            CHANNELS 3 Zrotation Xrotation Yrotation
            JOINT lHand
            {
              OFFSET 22.5879 0.773209 7.07136
              CHANNELS 3 Zrotation Xrotation Yrotation
              JOINT lThumb1
              {
                OFFSET 1.2192 -0.487915 3.41376
                CHANNELS 3 Zrotation Xrotation Yrotation
                JOINT lThumb2
                {
                  OFFSET 3.37035 -0.52449 3.41376
                  CHANNELS 3 Zrotation Xrotation Yrotation
                  End Site
                  {
                    OFFSET 1.78271 -1.18214 1.43049
                  }
                }
              }
              JOINT lIndex1
              {
                OFFSET 7.75947 0.938293 5.60832
                CHANNELS 3 Zrotation Xrotation Yrotation
                JOINT lIndex2
                {
                  OFFSET 2.54057 -0.884171 1.56538
                  CHANNELS 3 Zrotation Xrotation Yrotation
                  End Site
                  {
                    OFFSET 1.62519 -0.234802 1.16502
                  }
                }
              }
              JOINT lMid1
              {
                OFFSET 8.24714 1.18213 3.41376
                CHANNELS 3 Zrotation Xrotation Yrotation
                JOINT lMid2
                {
                  OFFSET 3.10165 -0.590103 1.0647
                  CHANNELS 3 Zrotation Xrotation Yrotation
                  End Site
                  {
                    OFFSET 2.48547 -0.328903 0.83742
                  }
                }
              }
              JOINT lRing1
              {
                OFFSET 8.82822 0.546677 1.51678
                CHANNELS 3 Zrotation Xrotation Yrotation
                JOINT lRing2
                {
                  OFFSET 2.60934 -0.819778 -0.0198488
                  CHANNELS 3 Zrotation Xrotation Yrotation
                  End Site
                  {
                    OFFSET 2.33842 -0.294052 0.168128
                  }
                }
              }
              JOINT lPinky1
              {
                OFFSET 8.27202 -0.0477905 -0.4584
                CHANNELS 3 Zrotation Xrotation Yrotation
                JOINT lPinky2
                {
                  OFFSET 1.82734 -0.647385 -0.700984
                  CHANNELS 3 Zrotation Xrotation Yrotation
                  End Site
                  {
                    OFFSET 1.69225 -0.51767 -0.607171
                  }
                }
              }
            }
          }
        }
      }
    }
  }
  JOINT rButtock
  {
    OFFSET -8.77824 4.35084 1.2192
    CHANNELS 3 Zrotation Xrotation Yrotation
    JOINT rThigh
    {
      OFFSET 0 -1.70687 -2.19456
      CHANNELS 3 Zrotation Xrotation Yrotation
      JOINT rShin
      {
        OFFSET 0 -36.8199 0.73152
        CHANNELS 3 Zrotation Xrotation Yrotation
        JOINT rFoot
        {
          OFFSET 0.73152 -45.1104 -5.12064
          CHANNELS 3 Zrotation Xrotation Yrotation
          End Site
          {
            OFFSET -1.1221 -3.69964 12.103
          }
        }
      }
    }
  }
  JOINT lButtock
  {
    OFFSET 8.77824 4.35084 1.2192
    CHANNELS 3 Zrotation Xrotation Yrotation
    JOINT lThigh
    {
      OFFSET 0 -1.70687 -2.19456
      CHANNELS 3 Zrotation Xrotation Yrotation
      JOINT lShin
      {
        OFFSET 0 -36.8199 0.73152
        CHANNELS 3 Zrotation Xrotation Yrotation
        JOINT lFoot
        {
          OFFSET -0.73152 -45.1104 -5.12064
          CHANNELS 3 Zrotation Xrotation Yrotation
          End Site
          {
            OFFSET 1.1221 -3.69964 12.103
          }
        }
      }
    }
  }
}
MOTION
Frames:	5
Frame Time:	0.03333
-23.6041 70.1136 65.3987 -117.461 59.5761 -109.264 -3.38333 30.764200000000002 -3.3223 10.8141 -11.3685 0.186574 -10.0554 21.850200000000005 -17.8812 27.7755 -25.324 -30.110699999999994 -0.0 0.0 0.0 -0.0 0.0 0.0 1.1724700000000002e-13 -1.03518e-12 -1.6126799999999998e-13 53.915 4.99246 -12.3519 -27.176899999999996 -26.9461 62.3809 -0.00780841 -2.4228600000000005 -0.340724 -2.50307e-09 -5.78199e-09 3.3725e-09 -4.33268e-09 -1.00086e-08 5.819470000000001e-09 -2.50307e-09 -5.78198e-09 3.3725e-09 7.730909999999999 5.47488 0.417314 -2.50307e-09 -5.78199e-09 3.3725e-09 2.90554 0.965183 0.102902 -2.50307e-09 -5.78199e-09 3.3725e-09 10.278600000000003 0.731801 0.0259123 -2.50307e-09 -5.78199e-09 3.37251e-09 2.22167 -0.733487 -0.20892000000000002 1.1703300000000002e-13 -1.0350799999999999e-12 -1.6165500000000003e-13 -38.2957 41.3259 -38.2309 28.405599999999996 -34.4265 -74.4039 1.14228 -28.916700000000002 4.44943 -3.41707e-10 1.5987999999999997e-09 -1.6151e-09 -5.54597e-10 2.76764e-09 -2.7941e-09 -3.41712e-10 1.5987999999999997e-09 -1.61509e-09 -7.730909999999999 5.47488 -0.417314 -3.41707e-10 1.5987999999999997e-09 -1.6151e-09 -2.90554 0.965183 -0.102902 -3.4171499999999994e-10 1.5987999999999997e-09 -1.61509e-09 -10.278600000000003 0.731801 -0.0259123 -3.4170400000000005e-10 1.5987999999999997e-09 -1.6151e-09 -2.22167 -0.733487 0.20892000000000002 -2.03217e-16 0.0 -3.88251e-19 -91.55970000000002 -52.86840000000001 -84.2801 -176.911 64.34240000000001 179.064 4.45309 -16.032 5.67682 2.03217e-16 0.0 3.88251e-19 47.1684 -44.3805 33.91490000000001 0.672354 57.8035 -2.3392600000000003 1.4722000000000002 -15.7586 9.539610000000001
-23.0856 68.8744 65.583 -120.499 60.709399999999995 -112.307 -3.1814799999999996 29.444 -3.2706299999999997 10.814999999999998 -11.1535 0.17286199999999996 -9.98632 22.1064 -18.139099999999996 27.3431 -25.299400000000002 -30.670999999999996 -0.0 0.0 0.0 -0.0 0.0 0.0 2.32581e-14 -2.13701e-12 -3.83948e-13 53.3456 6.02696 -11.0113 -27.4665 -28.0464 64.1557 -0.00625839 -2.2713600000000005 -0.319386 -6.87758e-10 -4.64232e-09 2.8688800000000005e-09 -1.1939899999999997e-09 -8.04316e-09 4.94591e-09 -6.87757e-10 -4.64232e-09 2.86887e-09 7.730909999999999 5.47488 0.417314 -6.8776e-10 -4.64232e-09 2.86887e-09 2.90554 0.965183 0.102902 -6.87751e-10 -4.64232e-09 2.8688800000000005e-09 10.278600000000003 0.731801 0.0259123 -6.87758e-10 -4.64232e-09 2.8688899999999996e-09 2.22167 -0.733487 -0.20892000000000002 2.29746e-14 -2.13691e-12 -3.84311e-13 -41.7095 42.857400000000005 -33.37859999999999 28.4073 -34.4676 -74.4717 1.0523 -27.7695 4.245369999999999 3.3465600000000003e-10 1.08439e-09 -6.549650000000002e-12 5.73948e-10 1.87418e-09 9.10383e-13 3.34653e-10 1.0844e-09 -6.5395499999999995e-12 -7.730909999999999 5.47488 -0.417314 3.3465600000000003e-10 1.0844e-09 -6.545430000000001e-12 -2.90554 0.965183 -0.102902 3.34646e-10 1.0844e-09 -6.54099e-12 -10.278600000000003 0.731801 -0.0259123 3.3466e-10 1.0844e-09 -6.54576e-12 -2.22167 -0.733487 0.20892000000000002 -2.03217e-16 0.0 -3.88251e-19 -82.9186 -56.1048 -74.441 -176.27099999999996 71.1414 178.409 4.66976 -15.3908 6.76486 2.03217e-16 0.0 3.88251e-19 47.16360000000001 -45.4979 34.5064 0.7929549999999999 60.29429999999999 -2.52203 1.59268 -16.7322 9.54355
-22.5428 67.6662 65.7719 -123.366 61.401599999999995 -115.22500000000002 -2.88598 28.1325 -3.1188099999999994 10.9083 -11.0046 0.210613 -9.89475 22.2785 -18.438000000000002 26.9642 -24.9629 -31.3389 -0.0 0.0 0.0 -0.0 0.0 0.0 -3.48559e-13 -2.688e-12 -4.84085e-13 52.9634 7.26757 -9.67442 -27.6966 -29.039200000000008 65.7253 -0.004102920000000001 -1.8476000000000004 -0.259751 2.10574e-09 -1.78715e-09 2.15222e-09 3.63637e-09 -3.1130000000000003e-09 3.70957e-09 2.10574e-09 -1.78715e-09 2.15221e-09 7.730909999999999 5.47488 0.417314 2.10573e-09 -1.78715e-09 2.15222e-09 2.90554 0.965183 0.102902 2.10575e-09 -1.78715e-09 2.1522299999999997e-09 10.278600000000003 0.731801 0.0259123 2.10574e-09 -1.78715e-09 2.15224e-09 2.22167 -0.733487 -0.20892000000000002 -3.48829e-13 -2.6879800000000004e-12 -4.84323e-13 -45.039300000000004 44.2556 -28.816200000000002 28.4085 -34.5142 -74.5526 1.1245000000000003 -28.629 4.40058 1.91638e-09 -3.47212e-10 2.9472599999999996e-09 3.23795e-09 -6.1756e-10 5.14302e-09 1.9163700000000005e-09 -3.47212e-10 2.94727e-09 -7.730909999999999 5.47488 -0.417314 1.9163700000000005e-09 -3.47211e-10 2.9472599999999996e-09 -2.90554 0.965183 -0.102902 1.91636e-09 -3.47212e-10 2.94727e-09 -10.278600000000003 0.731801 -0.0259123 1.91638e-09 -3.47211e-10 2.9472599999999996e-09 -2.22167 -0.733487 0.20892000000000002 -2.03217e-16 0.0 -3.88251e-19 -73.3737 -57.77519999999999 -64.2936 -174.744 77.8847 176.747 5.232499999999999 -13.7096 9.43465 2.03217e-16 0.0 3.88251e-19 47.23210000000001 -46.5755 34.9692 0.933296 62.7209 -2.70722 1.84739 -17.6925 9.77214
-21.9317 66.5304 65.9351 -126.096 61.9195 -118.19700000000003 -2.44927 27.0862 -3.21758 11.091 -10.875399999999999 0.19965299999999997 -9.8625 22.5174 -18.6688 26.5696 -24.9392 -31.840400000000002 -0.0 0.0 0.0 -0.0 0.0 0.0 -5.41136e-13 -7.14453e-13 -1.35743e-13 52.566700000000004 8.91437 -8.28344 -27.8987 -30.038500000000003 67.3112 -0.00312038 -1.5725 -0.221059 2.87363e-09 1.38666e-09 -6.08815e-10 4.96666e-09 2.3805e-09 -1.05546e-09 2.87364e-09 1.38667e-09 -6.08824e-10 7.730909999999999 5.47488 0.417314 2.87363e-09 1.38666e-09 -6.08814e-10 2.90554 0.965183 0.102902 2.87364e-09 1.38666e-09 -6.08812e-10 10.278600000000003 0.731801 0.0259123 2.87363e-09 1.38666e-09 -6.088019999999999e-10 2.22167 -0.733487 -0.20892000000000002 -5.414220000000001e-13 -7.14444e-13 -1.35939e-13 -48.6445 45.4138 -24.0186 28.422699999999995 -34.828700000000005 -75.0529 1.2320899999999997 -29.848100000000002 4.62492 1.7443899999999998e-09 -7.72979e-10 3.04944e-09 2.93803e-09 -1.35318e-09 5.316659999999999e-09 1.74438e-09 -7.72979e-10 3.04945e-09 -7.730909999999999 5.47488 -0.417314 1.7443899999999998e-09 -7.72979e-10 3.04944e-09 -2.90554 0.965183 -0.102902 1.74437e-09 -7.72979e-10 3.04944e-09 -10.278600000000003 0.731801 -0.0259123 1.7443899999999998e-09 -7.72979e-10 3.04944e-09 -2.22167 -0.733487 0.20892000000000002 -2.03217e-16 0.0 -3.88251e-19 -63.82710000000001 -57.6345 -54.3162 -170.07 84.16599999999998 172.001 5.255789999999999 -11.7445 11.0698 2.03217e-16 0.0 3.88251e-19 47.12850000000001 -47.4565 35.1419 1.10202 65.0053 -2.89234 2.04803 -18.6934 9.782070000000001
-21.3371 65.4107 66.0612 -129.151 62.1843 -121.687 -1.88507 26.3053 -3.55978 11.363300000000002 -10.765899999999998 0.140042 -9.88969 22.8236 -18.8316 26.1512 -25.227100000000004 -32.1794 -0.0 0.0 0.0 -0.0 0.0 0.0 -5.54473e-13 3.78363e-12 6.61078e-13 52.120900000000006 10.9692 -6.83534 -28.0695 -31.046999999999997 68.9244 -0.00270784 -1.44607 -0.203279 1.6159299999999998e-09 4.8791200000000004e-09 -5.41424e-09 2.79688e-09 8.43734e-09 -9.34916e-09 1.6159299999999998e-09 4.87913e-09 -5.41424e-09 7.730909999999999 5.47488 0.417314 1.61592e-09 4.8791200000000004e-09 -5.41424e-09 2.90554 0.965183 0.102902 1.6159299999999998e-09 4.8791200000000004e-09 -5.41424e-09 10.278600000000003 0.731801 0.0259123 1.61592e-09 4.8791200000000004e-09 -5.41423e-09 2.22167 -0.733487 -0.20892000000000002 -5.54804e-13 3.78369e-12 6.60841e-13 -52.48909999999999 46.309 -19.0133 28.4326 -35.39500000000001 -75.997 1.38523 -31.426100000000005 4.92551 -1.8130000000000004e-10 -1.92906e-10 2.99983e-10 -3.25824e-10 -3.32673e-10 5.21824e-10 -1.8130399999999997e-10 -1.92904e-10 2.9999899999999994e-10 -7.730909999999999 5.47488 -0.417314 -1.81299e-10 -1.92905e-10 2.99987e-10 -2.90554 0.965183 -0.102902 -1.81307e-10 -1.92906e-10 2.9999e-10 -10.278600000000003 0.731801 -0.0259123 -1.81298e-10 -1.92906e-10 2.99984e-10 -2.22167 -0.733487 0.20892000000000002 -2.03217e-16 0.0 -3.88251e-19 -55.4698 -55.963 -45.8236 -81.4551 89.0954 83.37 4.81971 -9.50703 11.6993 2.03217e-16 0.0 3.88251e-19 46.8303 -48.1446 35.0012 1.2951099999999998 67.14740000000002 -3.0738499999999997 2.18242 -19.7365 9.5699
